<svg width="12" height="12" viewBox="0 0 13 13" fill="none" xmlns="http://www.w3.org/2000/svg">
<path d="M1.78315 11.9999C1.54982 12.0555 1.34704 11.9972 1.17482 11.8249C1.0026 11.6527 0.944262 11.4499 0.999817 11.2166L1.66648 8.03327L4.96648 11.3333L1.78315 11.9999ZM4.96648 11.3333L1.66648 8.03327L9.29982 0.399935C9.55537 0.144379 9.87204 0.0166016 10.2498 0.0166016C10.6276 0.0166016 10.9443 0.144379 11.1998 0.399935L12.5998 1.79993C12.8554 2.05549 12.9832 2.37216 12.9832 2.74993C12.9832 3.12771 12.8554 3.44438 12.5998 3.69993L4.96648 11.3333ZM10.2498 1.33327L3.34982 8.23327L4.76648 9.64993L11.6665 2.74993L10.2498 1.33327Z" fill="#0066FF"/>
</svg>
