<svg width="150" height="150" viewBox="0 0 150 150" fill="none" xmlns="http://www.w3.org/2000/svg">
<path fill-rule="evenodd" clip-rule="evenodd" d="M125 57.4983C124.936 59.8331 124.754 62.1621 124.456 64.4745C113.638 66.5183 103.067 69.9245 92.9492 74.6267C95.0544 76.3651 97.089 78.1482 99.0532 79.9535C106.787 76.7289 114.752 74.2312 122.865 72.487C122.147 75.0978 121.23 77.6365 120.125 80.0761C114.793 81.4048 109.533 83.0679 104.371 85.0575C106.94 87.6429 109.337 90.2394 111.543 92.8583C110.072 94.3809 108.507 95.7884 106.859 97.0707C90.3505 78.2373 58.884 53.7874 25.0504 52.9182C25.1781 50.6776 25.4101 48.4459 25.7454 46.2318C42.6773 46.5884 58.9847 52.439 73.3582 60.8415C79.6264 57.0684 86.1494 53.8381 92.8687 51.1797L98.9222 48.9618C107.135 46.1323 115.564 44.137 124.104 43C124.459 45.474 124.711 47.8774 124.859 50.2102C109.257 52.4667 94.0758 57.435 79.8751 64.9314C82.3597 66.5807 84.7737 68.2857 87.1172 70.0465C99.1781 64.0004 111.92 59.7797 125 57.4983ZM100.715 101.06C98.7572 102.129 96.7385 103.056 94.6716 103.835C78.6765 87.2863 53.8477 68.8206 25.7353 66.1126C25.3519 63.8489 25.1062 61.5592 25 59.2591C55.7111 61.655 82.8566 81.6251 100.685 101.06H100.715ZM78.6664 107C65.6023 95.7557 48.9525 85.1912 30.5802 80.7336C29.3167 78.3172 28.258 75.7767 27.4174 73.1445C50.5842 77.4572 71.4142 91.1644 87.1273 105.964C84.3244 106.544 81.486 106.89 78.6362 107H78.6664Z" fill="#718096"/>
</svg>
