<svg width="150" height="150" viewBox="0 0 150 150" fill="none" xmlns="http://www.w3.org/2000/svg">
<path fill-rule="evenodd" clip-rule="evenodd" d="M91.8043 120.706C92.0826 139.756 58.465 139.773 58.465 120.706C58.465 106.17 58.465 71.9638 58.465 71.9638L55 68.482L57.0573 58.2904H93.6281L95 68.7228L91.8043 71.9638C91.8043 71.9638 91.526 101.666 91.8043 120.706ZM65.2244 68.7228C65.2244 68.7228 65.2244 114.303 65.2244 121.019C65.2244 130.516 84.8025 130.409 84.8025 121.117C84.8025 113.545 84.8923 66.8945 84.8923 66.8945L65.2244 68.7228ZM70.018 120.929L70.2693 77.2675L80.7361 75.0201C80.7361 75.0201 79.5871 115.926 79.5871 120.929C79.5871 125.932 70.018 126.254 70.018 120.929ZM78.3662 52.9466C71.4901 52.9466 73.1329 42.4682 79.5871 42.4682C86.0413 42.4682 84.6499 52.9466 78.3662 52.9466ZM84.8025 33.4828C72.9533 33.4828 69.614 15 80.7361 15C91.8582 15 95.6194 33.4828 84.8025 33.4828ZM67.2442 41.2962C60.368 41.2962 60.781 30.1876 67.2442 30.1876C73.7074 30.1876 73.5278 41.2962 67.2442 41.2962Z" fill="#718096"/>
</svg>
