<svg width="24.000000" height="24.000000" viewBox="0 0 24 24" fill="none" xmlns="http://www.w3.org/2000/svg" xmlns:xlink="http://www.w3.org/1999/xlink">
	<desc>
			Created with Pixso.
	</desc>
	<defs/>
	<path id="Subtract (Stroke)" d="M13.2559 2.43915C12.8867 1.18695 11.1133 1.18695 10.7441 2.43915L10.6035 2.91678C10.0972 4.63348 8.13672 5.44568 6.56494 4.5896L6.12744 4.35141C4.98096 3.72696 3.72705 4.98111 4.35156 6.12753L4.58936 6.56479C5.4458 8.13651 4.6333 10.0973 2.91699 10.6033L2.43896 10.7441C1.18701 11.1132 1.18701 12.8868 2.43896 13.2559L2.91699 13.3967C4.6333 13.9027 5.4458 15.8635 4.58936 17.4352L4.35156 17.8725C3.72705 19.0189 4.98096 20.273 6.12744 19.6486L6.56494 19.4104C8.13672 18.5543 10.0972 19.3665 10.6035 21.0832L10.7441 21.5609C11.1133 22.813 12.8867 22.813 13.2559 21.5609L13.3965 21.0832C13.9028 19.3665 15.8633 18.5543 17.4351 19.4104L17.8726 19.6486C19.019 20.2731 20.2729 19.0189 19.6484 17.8725L19.4106 17.4352C18.5542 15.8635 19.3667 13.9027 21.083 13.3967L21.561 13.2559C22.813 12.8868 22.813 11.1132 21.561 10.7441L21.083 10.6033C19.3667 10.0973 18.5542 8.13651 19.4106 6.56479L19.6484 6.1275C20.2729 4.98111 19.019 3.72693 17.8726 4.35141L17.4351 4.5896C15.8633 5.44571 13.9028 4.63348 13.3965 2.91678L13.2559 2.43915ZM9.30518 2.01508C10.0972 -0.671692 13.9028 -0.671692 14.6948 2.01508L14.8354 2.49268C15.0713 3.29279 15.9854 3.67133 16.7178 3.27234L17.1548 3.03415C19.6147 1.69431 22.3057 4.38522 20.9658 6.84503L20.7275 7.28232C20.3286 8.01483 20.707 8.92868 21.5073 9.16452L21.9849 9.3053C24.6719 10.0972 24.6719 13.9028 21.9849 14.6947L21.5073 14.8355C20.707 15.0713 20.3286 15.9852 20.7275 16.7177L20.9658 17.155C22.3057 19.6147 19.6147 22.3057 17.1548 20.9659L16.7178 20.7277C15.9854 20.3287 15.0713 20.7072 14.8354 21.5073L14.6948 21.9849C13.9028 24.6717 10.0972 24.6717 9.30518 21.9849L9.16455 21.5073C8.92871 20.7072 8.01465 20.3287 7.28223 20.7277L6.84521 20.9659C4.38525 22.3057 1.69434 19.6147 3.03418 17.155L3.27246 16.7177C3.67139 15.9852 3.29297 15.0713 2.49268 14.8355L2.01514 14.6947C-0.671875 13.9028 -0.671875 10.0972 2.01514 9.3053L2.49268 9.16452C3.29297 8.92868 3.67139 8.01483 3.27246 7.28232L3.03418 6.84503C1.69434 4.38525 4.38525 1.69427 6.84521 3.03415L7.28223 3.27234C8.01465 3.67133 8.92871 3.29279 9.16455 2.49268L9.30518 2.01508Z" fill="#0066FF" fill-opacity="1.000000" fill-rule="evenodd"/>
	<path id="Subtract (Stroke)" d="M12 8.63132C10.1396 8.63132 8.63135 10.1395 8.63135 12C8.63135 13.8604 10.1396 15.3686 12 15.3686C13.8604 15.3686 15.3687 13.8604 15.3687 12C15.3687 10.1395 13.8604 8.63132 12 8.63132ZM7.13135 12C7.13135 9.3111 9.31104 7.13132 12 7.13132C14.689 7.13132 16.8687 9.3111 16.8687 12C16.8687 14.6888 14.689 16.8686 12 16.8686C9.31104 16.8686 7.13135 14.6888 7.13135 12Z" fill="#0066FF" fill-opacity="1.000000" fill-rule="evenodd"/>
</svg>
