<svg width="14" height="14" viewBox="0 0 14 14" fill="none" xmlns="http://www.w3.org/2000/svg">
<mask id="mask0_1405_3396" style="mask-type:alpha" maskUnits="userSpaceOnUse" x="0" y="0" width="14" height="14">
<rect width="14" height="14" fill="#D9D9D9"/>
</mask>
<g mask="url(#mask0_1405_3396)">
<path d="M7 12.25C5.65833 12.25 4.48924 11.8052 3.49271 10.9156C2.49618 10.026 1.925 8.91528 1.77917 7.58333H2.975C3.11111 8.59444 3.56076 9.43056 4.32396 10.0917C5.08715 10.7528 5.97917 11.0833 7 11.0833C8.1375 11.0833 9.10243 10.6872 9.89479 9.89479C10.6872 9.10243 11.0833 8.1375 11.0833 7C11.0833 5.8625 10.6872 4.89757 9.89479 4.10521C9.10243 3.31285 8.1375 2.91667 7 2.91667C6.32917 2.91667 5.70208 3.07222 5.11875 3.38333C4.53542 3.69444 4.04444 4.12222 3.64583 4.66667H5.25V5.83333H1.75V2.33333H2.91667V3.70417C3.4125 3.08194 4.01771 2.60069 4.73229 2.26042C5.44688 1.92014 6.20278 1.75 7 1.75C7.72917 1.75 8.41215 1.88854 9.04896 2.16563C9.68576 2.44271 10.2399 2.81701 10.7115 3.28854C11.183 3.76007 11.5573 4.31424 11.8344 4.95104C12.1115 5.58785 12.25 6.27083 12.25 7C12.25 7.72917 12.1115 8.41215 11.8344 9.04896C11.5573 9.68576 11.183 10.2399 10.7115 10.7115C10.2399 11.183 9.68576 11.5573 9.04896 11.8344C8.41215 12.1115 7.72917 12.25 7 12.25ZM8.63333 9.45L6.41667 7.23333V4.08333H7.58333V6.76667L9.45 8.63333L8.63333 9.45Z" fill="#0066FF"/>
</g>
</svg>
