<svg width="14" height="14" viewBox="0 0 14 14" fill="none" xmlns="http://www.w3.org/2000/svg">
<path d="M6.99967 10.334C7.18856 10.334 7.3469 10.2701 7.47468 10.1423C7.60245 10.0145 7.66634 9.85621 7.66634 9.66732V7.00065C7.66634 6.81176 7.60245 6.65343 7.47468 6.52565C7.3469 6.39787 7.18856 6.33398 6.99967 6.33398C6.81079 6.33398 6.65245 6.39787 6.52467 6.52565C6.3969 6.65343 6.33301 6.81176 6.33301 7.00065V9.66732C6.33301 9.85621 6.3969 10.0145 6.52467 10.1423C6.65245 10.2701 6.81079 10.334 6.99967 10.334ZM6.99967 5.00065C7.18856 5.00065 7.3469 4.93676 7.47468 4.80898C7.60245 4.68121 7.66634 4.52287 7.66634 4.33398C7.66634 4.1451 7.60245 3.98676 7.47468 3.85898C7.3469 3.73121 7.18856 3.66732 6.99967 3.66732C6.81079 3.66732 6.65245 3.73121 6.52467 3.85898C6.3969 3.98676 6.33301 4.1451 6.33301 4.33398C6.33301 4.52287 6.3969 4.68121 6.52467 4.80898C6.65245 4.93676 6.81079 5.00065 6.99967 5.00065ZM6.99967 13.6673C6.07745 13.6673 5.21079 13.4923 4.39967 13.1423C3.58856 12.7923 2.88301 12.3173 2.28301 11.7173C1.68301 11.1173 1.20801 10.4118 0.858008 9.60065C0.508008 8.78954 0.333008 7.92287 0.333008 7.00065C0.333008 6.07843 0.508008 5.21176 0.858008 4.40065C1.20801 3.58954 1.68301 2.88398 2.28301 2.28398C2.88301 1.68398 3.58856 1.20898 4.39967 0.858984C5.21079 0.508984 6.07745 0.333984 6.99967 0.333984C7.9219 0.333984 8.78856 0.508984 9.59968 0.858984C10.4108 1.20898 11.1163 1.68398 11.7163 2.28398C12.3163 2.88398 12.7913 3.58954 13.1413 4.40065C13.4913 5.21176 13.6663 6.07843 13.6663 7.00065C13.6663 7.92287 13.4913 8.78954 13.1413 9.60065C12.7913 10.4118 12.3163 11.1173 11.7163 11.7173C11.1163 12.3173 10.4108 12.7923 9.59968 13.1423C8.78856 13.4923 7.9219 13.6673 6.99967 13.6673Z" fill="#4A5568"/>
</svg>
