<svg width="20" height="20" viewBox="0 0 20 20" fill="none" xmlns="http://www.w3.org/2000/svg">
<mask id="mask0_1328_505" style="mask-type:alpha" maskUnits="userSpaceOnUse" x="0" y="0" width="20" height="20">
<rect width="20" height="20" fill="#D9D9D9"/>
</mask>
<g mask="url(#mask0_1328_505)">
<path d="M9.99967 9.99967C9.08301 9.99967 8.29829 9.67329 7.64551 9.02051C6.99273 8.36773 6.66634 7.58301 6.66634 6.66634C6.66634 5.74967 6.99273 4.96495 7.64551 4.31217C8.29829 3.6594 9.08301 3.33301 9.99967 3.33301C10.9163 3.33301 11.7011 3.6594 12.3538 4.31217C13.0066 4.96495 13.333 5.74967 13.333 6.66634C13.333 7.58301 13.0066 8.36773 12.3538 9.02051C11.7011 9.67329 10.9163 9.99967 9.99967 9.99967ZM3.33301 14.9997V14.333C3.33301 13.8608 3.45454 13.4268 3.69759 13.0309C3.94065 12.6351 4.26356 12.333 4.66634 12.1247C5.52745 11.6941 6.40245 11.3712 7.29134 11.1559C8.18023 10.9406 9.08301 10.833 9.99967 10.833C10.9163 10.833 11.8191 10.9406 12.708 11.1559C13.5969 11.3712 14.4719 11.6941 15.333 12.1247C15.7358 12.333 16.0587 12.6351 16.3018 13.0309C16.5448 13.4268 16.6663 13.8608 16.6663 14.333V14.9997C16.6663 15.458 16.5031 15.8504 16.1768 16.1768C15.8504 16.5031 15.458 16.6663 14.9997 16.6663H4.99967C4.54134 16.6663 4.14898 16.5031 3.82259 16.1768C3.4962 15.8504 3.33301 15.458 3.33301 14.9997Z" fill="#2D3748"/>
</g>
</svg>
