<svg width="16" height="16" viewBox="0 0 16 16" fill="none" xmlns="http://www.w3.org/2000/svg">
<mask id="mask0_1442_2799" style="mask-type:alpha" maskUnits="userSpaceOnUse" x="0" y="0" width="16" height="16">
<rect width="16" height="16" fill="#D9D9D9"/>
</mask>
<g mask="url(#mask0_1442_2799)">
<path d="M7.33301 8.66732H3.99967C3.81079 8.66732 3.65245 8.60343 3.52467 8.47565C3.3969 8.34787 3.33301 8.18954 3.33301 8.00065C3.33301 7.81176 3.3969 7.65343 3.52467 7.52565C3.65245 7.39787 3.81079 7.33398 3.99967 7.33398H7.33301V4.00065C7.33301 3.81176 7.3969 3.65343 7.52467 3.52565C7.65245 3.39787 7.81079 3.33398 7.99967 3.33398C8.18856 3.33398 8.3469 3.39787 8.47467 3.52565C8.60245 3.65343 8.66634 3.81176 8.66634 4.00065V7.33398H11.9997C12.1886 7.33398 12.3469 7.39787 12.4747 7.52565C12.6025 7.65343 12.6663 7.81176 12.6663 8.00065C12.6663 8.18954 12.6025 8.34787 12.4747 8.47565C12.3469 8.60343 12.1886 8.66732 11.9997 8.66732H8.66634V12.0007C8.66634 12.1895 8.60245 12.3479 8.47467 12.4757C8.3469 12.6034 8.18856 12.6673 7.99967 12.6673C7.81079 12.6673 7.65245 12.6034 7.52467 12.4757C7.3969 12.3479 7.33301 12.1895 7.33301 12.0007V8.66732Z" fill="white"/>
</g>
</svg>
