<svg width="16.000000" height="13.899902" viewBox="0 0 16 13.8999" fill="none" xmlns="http://www.w3.org/2000/svg" xmlns:xlink="http://www.w3.org/1999/xlink">
	<desc>
			Created with Pixso.
	</desc>
	<defs/>
	<path id="v2" d="M8.35355 0.146484C8.15829 -0.0488281 7.84171 -0.0488281 7.64645 0.146484L4.64645 3.14648C4.45117 3.3418 4.45117 3.6582 4.64645 3.85352C4.84171 4.04883 5.15829 4.04883 5.35355 3.85352L7.5 1.70703L7.5 10.5C7.5 10.7761 7.72385 11 8 11C8.27615 11 8.5 10.7761 8.5 10.5L8.5 1.70703L10.6465 3.85352C10.8417 4.04883 11.1583 4.04883 11.3535 3.85352C11.5488 3.6582 11.5488 3.3418 11.3535 3.14648L8.35355 0.146484ZM1 9.3999C1 9.12378 0.776154 8.8999 0.5 8.8999C0.223846 8.8999 0 9.12378 0 9.3999L0 11.8999C0 13.0046 0.895416 13.8999 2 13.8999L14 13.8999C15.1046 13.8999 16 13.0046 16 11.8999L16 9.3999C16 9.12378 15.7762 8.8999 15.5 8.8999C15.2238 8.8999 15 9.12378 15 9.3999L15 11.8999C15 12.4524 14.5523 12.8999 14 12.8999L2 12.8999C1.44772 12.8999 1 12.4524 1 11.8999L1 9.3999Z" fill="#718096" fill-opacity="1.000000" fill-rule="evenodd"/>
</svg>
