<svg width="32" height="26" viewBox="0 0 32 32" fill="none" xmlns="http://www.w3.org/2000/svg">
<mask id="mask0_466_45353" style="mask-type:alpha" maskUnits="userSpaceOnUse" x="0" y="0" width="32" height="32">
<rect width="32" height="32" fill="#D9D9D9"/>
</mask>
<g mask="url(#mask0_466_45353)">
<path d="M16.6187 21.4358C18.1295 21.4358 19.4126 20.907 20.4682 19.8495C21.5238 18.7919 22.0515 17.5077 22.0515 15.9969C22.0515 14.4861 21.5228 13.203 20.4652 12.1474C19.4076 11.0919 18.1234 10.5641 16.6126 10.5641C15.1018 10.5641 13.8187 11.0929 12.7631 12.1504C11.7076 13.208 11.1798 14.4922 11.1798 16.003C11.1798 17.5138 11.7086 18.7969 12.7661 19.8525C13.8237 20.908 15.1079 21.4358 16.6187 21.4358ZM16.6157 19.6C15.6157 19.6 14.7657 19.25 14.0657 18.55C13.3657 17.85 13.0157 17 13.0157 16C13.0157 15 13.3657 14.15 14.0657 13.45C14.7657 12.75 15.6157 12.4 16.6157 12.4C17.6157 12.4 18.4657 12.75 19.1657 13.45C19.8657 14.15 20.2157 15 20.2157 16C20.2157 17 19.8657 17.85 19.1657 18.55C18.4657 19.25 17.6157 19.6 16.6157 19.6ZM16.6175 25.3333C13.5513 25.3333 10.7576 24.4875 8.23619 22.7961C5.71484 21.1046 3.85844 18.8393 2.66699 16C3.85844 13.1606 5.71424 10.8953 8.23439 9.20382C10.7545 7.51238 13.5477 6.66666 16.6138 6.66666C19.68 6.66666 22.4737 7.51238 24.9951 9.20382C27.5165 10.8953 29.3729 13.1606 30.5643 16C29.3729 18.8393 27.5171 21.1046 24.9969 22.7961C22.4768 24.4875 19.6836 25.3333 16.6175 25.3333ZM16.6157 23.3333C19.1268 23.3333 21.4323 22.6722 23.5323 21.35C25.6323 20.0277 27.2379 18.2444 28.349 16C27.2379 13.7555 25.6323 11.9722 23.5323 10.65C21.4323 9.32773 19.1268 8.66662 16.6157 8.66662C14.1045 8.66662 11.799 9.32773 9.69899 10.65C7.59899 11.9722 5.99344 13.7555 4.88233 16C5.99344 18.2444 7.59899 20.0277 9.69899 21.35C11.799 22.6722 14.1045 23.3333 16.6157 23.3333Z" fill="#a0aec0"/>
</g>
</svg>
