<?xml version="1.0" standalone="no"?>
<!DOCTYPE svg PUBLIC "-//W3C//DTD SVG 20010904//EN"
 "http://www.w3.org/TR/2001/REC-SVG-20010904/DTD/svg10.dtd">
<svg version="1.0" xmlns="http://www.w3.org/2000/svg"
 width="700.000000pt" height="700.000000pt" viewBox="0 0 700.000000 700.000000"
 preserveAspectRatio="xMidYMid meet">
<metadata>
Created by potrace 1.14, written by Peter Selinger 2001-2017
</metadata>
<g transform="translate(0.000000,700.000000) scale(0.100000,-0.100000)"
fill="#000000" stroke="none">
<path d="M2175 5730 c-33 -5 -91 -11 -130 -15 -113 -10 -110 -9 -109 -41 1
-25 10 -135 19 -229 1 -16 5 -64 9 -105 4 -41 9 -95 11 -120 3 -25 7 -79 11
-120 3 -41 7 -93 9 -115 12 -116 15 -156 20 -221 3 -40 7 -87 10 -105 2 -19 7
-68 10 -109 3 -41 8 -91 10 -110 2 -19 6 -68 10 -107 4 -40 8 -73 9 -73 1 0
204 63 247 77 14 4 16 17 14 71 -8 164 -17 373 -20 442 -2 41 -6 136 -10 210
-3 74 -8 176 -10 225 -2 50 -7 149 -11 220 -3 72 -6 150 -6 175 -1 39 -12 62
-28 59 -3 -1 -32 -5 -65 -9z"/>
<path d="M2649 5708 c-1 -18 -2 -49 -4 -68 -1 -19 -6 -89 -10 -155 -3 -66 -8
-140 -10 -165 -1 -25 -6 -94 -9 -155 -4 -60 -9 -135 -11 -165 -7 -99 -15 -213
-20 -305 -13 -213 -16 -263 -21 -307 l-5 -47 38 -10 c21 -6 81 -24 133 -40 52
-17 95 -29 96 -28 1 1 5 33 9 70 3 37 8 76 10 85 1 9 6 53 10 97 4 44 8 82 10
85 1 3 6 45 10 93 3 48 8 96 10 105 2 10 6 49 10 87 3 39 8 81 10 95 2 14 6
54 10 90 3 36 8 81 10 100 3 19 7 60 10 90 3 30 7 66 10 80 2 14 7 52 10 85 2
33 10 108 17 167 6 60 10 110 7 112 -2 2 -35 7 -74 11 -77 7 -112 11 -197 20
l-58 6 -1 -33z"/>
<path d="M4444 5232 c-42 -87 -123 -251 -179 -367 -56 -115 -164 -336 -239
-489 -75 -154 -133 -282 -129 -286 8 -8 233 -70 251 -70 8 0 55 82 268 475 46
85 208 383 242 445 20 36 46 84 58 106 12 23 41 75 64 117 l41 76 -150 74
-151 75 -76 -156z"/>
<path d="M3717 5127 c-32 -83 -62 -161 -67 -172 -5 -11 -39 -96 -75 -190 -36
-93 -69 -179 -74 -190 -5 -11 -86 -216 -179 -455 -142 -366 -166 -436 -153
-442 9 -3 62 -24 118 -46 l103 -40 16 36 c9 20 22 51 29 67 16 36 169 382 196
443 35 77 56 125 124 282 37 85 78 178 90 205 22 49 133 300 160 360 7 17 24
55 37 85 36 79 42 100 27 100 -7 0 -72 25 -144 55 -73 30 -136 55 -141 55 -5
0 -35 -69 -67 -153z"/>
<path d="M1580 5260 c-36 -9 -74 -15 -145 -26 -75 -12 -85 -19 -75 -56 5 -18
11 -55 15 -83 3 -27 8 -57 10 -65 4 -15 64 -356 69 -395 5 -34 21 -126 31
-175 2 -14 7 -38 9 -55 3 -16 23 -133 45 -260 22 -126 43 -247 47 -269 6 -39
10 -60 19 -106 5 -28 7 -41 25 -155 7 -44 17 -83 22 -86 5 -3 39 1 76 8 37 7
90 18 119 24 45 9 51 13 47 32 -4 24 -5 32 -29 217 -8 69 -17 139 -20 155 -2
17 -7 53 -10 80 -3 28 -8 64 -10 80 -3 17 -8 52 -11 80 -3 27 -8 63 -10 80 -2
16 -11 82 -19 145 -8 63 -17 131 -20 150 -2 19 -7 58 -10 85 -4 28 -8 61 -10
75 -2 14 -6 45 -10 70 -3 25 -7 61 -10 80 -2 19 -7 59 -11 89 -3 30 -8 63 -10
75 -2 12 -7 48 -10 81 -4 33 -8 67 -10 75 -1 8 -3 25 -3 38 -1 18 -6 22 -33
21 -18 -1 -49 -5 -68 -9z"/>
<path d="M5118 4983 c-29 -40 -184 -261 -470 -673 -33 -47 -111 -158 -174
-248 -63 -89 -114 -167 -114 -172 0 -5 6 -15 13 -22 11 -12 141 -161 158 -181
4 -5 73 78 155 185 81 106 191 249 243 318 53 69 101 132 108 140 7 8 88 114
180 235 92 121 173 226 180 233 7 7 13 17 13 22 0 5 -51 48 -112 96 -62 48
-120 94 -129 101 -15 12 -21 8 -51 -34z"/>
<path d="M5384 4307 c-10 -12 -41 -49 -69 -82 -27 -33 -54 -65 -60 -71 -5 -6
-41 -48 -80 -94 -67 -79 -154 -182 -253 -298 -25 -29 -54 -65 -66 -80 -11 -15
-23 -29 -26 -32 -3 -3 -43 -50 -90 -105 -47 -55 -95 -111 -107 -125 -11 -14
-85 -101 -164 -195 -78 -93 -149 -178 -157 -188 -14 -16 -9 -23 64 -92 43 -42
86 -80 95 -85 13 -7 32 8 95 77 44 48 86 94 94 102 8 9 44 48 79 86 36 39 108
117 162 175 53 58 109 119 124 135 36 40 224 244 355 385 8 9 58 63 110 120
52 57 107 117 123 132 15 16 27 32 27 37 0 7 -62 65 -196 184 l-41 36 -19 -22z"/>
<path d="M2352 4063 c-115 -116 -177 -208 -213 -315 -65 -194 6 -356 200 -457
43 -22 90 -42 104 -43 40 -3 170 68 232 128 192 187 135 463 -154 738 l-61 58
-108 -109z"/>
<path d="M4170 3797 c-3 -3 -26 -7 -51 -10 -125 -15 -293 -77 -389 -144 -149
-102 -209 -251 -164 -406 16 -54 83 -176 114 -207 35 -35 200 -43 298 -15 203
59 289 230 259 522 -10 95 -55 271 -67 260z"/>
<path d="M2947 3453 c-71 -115 -111 -264 -104 -393 5 -115 32 -190 91 -263 70
-86 145 -137 271 -183 l60 -22 41 29 c113 78 167 214 134 339 -42 160 -203
350 -422 499 l-47 32 -24 -38z"/>
<path d="M1593 3173 c7 -95 44 -239 78 -300 73 -132 182 -216 317 -244 65 -13
192 -7 266 13 46 12 51 17 74 68 34 72 36 183 5 251 -75 168 -306 273 -647
294 l-99 6 6 -88z"/>
<path d="M2547 2808 c-65 -133 -82 -200 -82 -328 0 -130 13 -178 71 -266 61
-92 156 -160 285 -205 l67 -23 40 28 c23 15 57 49 77 74 135 174 53 414 -225
653 -59 51 -181 139 -192 139 -3 0 -21 -33 -41 -72z"/>
<path d="M3741 2774 c-69 -14 -132 -47 -173 -91 -33 -35 -74 -124 -83 -182 -7
-43 -7 -44 54 -102 235 -224 510 -216 747 20 51 50 131 158 123 165 -21 18
-143 81 -223 115 -174 74 -324 99 -445 75z"/>
<path d="M1584 2452 c27 -377 256 -591 582 -544 48 7 99 19 113 27 37 19 65
101 65 190 1 131 -76 235 -227 308 -126 62 -256 91 -461 102 l-78 5 6 -88z"/>
<path d="M3341 2164 c-121 -32 -192 -107 -227 -239 -8 -27 -14 -55 -14 -61 0
-21 115 -126 180 -164 206 -121 423 -85 614 103 46 45 96 102 112 126 28 42
28 44 9 58 -63 46 -313 154 -389 169 -12 2 -33 6 -47 9 -60 13 -186 13 -238
-1z"/>
<path d="M2626 1661 c-87 -110 -158 -202 -157 -206 0 -3 86 -48 191 -100 l190
-95 60 126 c33 70 60 128 60 130 0 2 18 41 40 85 l40 81 -27 22 c-39 30 -226
156 -233 156 -3 0 -76 -90 -164 -199z"/>
</g>
</svg>
