<svg width="20" height="20" viewBox="0 0 20 20" fill="none" xmlns="http://www.w3.org/2000/svg">
<mask id="mask0_1_4559" style="mask-type:alpha" maskUnits="userSpaceOnUse" x="0" y="0" width="20" height="20">
<rect width="20" height="20" fill="#D9D9D9"/>
</mask>
<g mask="url(#mask0_1_4559)">
<path d="M6.95833 9.99997L13.0833 16.125C13.2917 16.3333 13.3924 16.5764 13.3854 16.8541C13.3785 17.1319 13.2708 17.375 13.0625 17.5833C12.8542 17.7916 12.6111 17.8958 12.3333 17.8958C12.0556 17.8958 11.8125 17.7916 11.6042 17.5833L5.1875 11.1875C5.02083 11.0208 4.89583 10.8333 4.8125 10.625C4.72917 10.4166 4.6875 10.2083 4.6875 9.99997C4.6875 9.79164 4.72917 9.5833 4.8125 9.37497C4.89583 9.16664 5.02083 8.97914 5.1875 8.81247L11.6042 2.3958C11.8125 2.18747 12.059 2.08678 12.3437 2.09372C12.6285 2.10066 12.875 2.2083 13.0833 2.41664C13.2917 2.62497 13.3958 2.86803 13.3958 3.1458C13.3958 3.42358 13.2917 3.66664 13.0833 3.87497L6.95833 9.99997Z" fill="#2D3748"/>
</g>
</svg>
