<svg width="150" height="150" viewBox="0 0 150 150" fill="none" xmlns="http://www.w3.org/2000/svg">
<path fill-rule="evenodd" clip-rule="evenodd" d="M98.4732 66.3236L101.181 82.7946L89.5084 80.7147L84.3046 93.7714L73.1982 87.8327L60.4769 90.1488L58.8104 80.7147L44.0518 76.709L48.5729 63.0879L43 53.0217L53.7717 46.2317L55.7902 32.7111L70.6174 35.0191L78.4855 27L89.5084 37.6896L98.4732 36.4921L96.1498 47.7783L107 58.3764L98.4732 66.3236ZM72.8832 54.8846C61.1411 48.2716 61.3485 70.0806 75.7337 70.0806C87.874 70.0806 90.7794 50.7603 72.8832 51.4714V54.8846ZM73.1588 91.683L82.0203 97.1862L67.3495 122.287L60.4769 109.044L46.0031 112.607L54.6677 95.6619L60.4769 93.7714L73.1588 91.683ZM106.636 109.044L90.5077 108.013L84.7083 123L77.2942 113.171L90.5077 90.5348L106.636 109.044Z" fill="#718096"/>
</svg>
