<svg width="150" height="150" viewBox="0 0 150 150" fill="none" xmlns="http://www.w3.org/2000/svg">
<path fill-rule="evenodd" clip-rule="evenodd" d="M100.947 61.1884L93.5012 57.6456L92.7544 54.2993L83.1311 49.3656L78.6102 50.5601L71.1648 47.0173C71.1648 47.0173 72.8713 37.786 79.7679 40.4503C84.292 30.6817 88.2917 21.9643 89.7718 18.5811C93.5761 9.89408 115.515 18.3403 110.164 29.7365C108.635 32.9939 104.821 41.3708 100.543 50.8454C108.312 55.925 100.947 61.1884 100.947 61.1884ZM79.9307 58.1864L69.7714 79.594L75.3743 74.9638L79.4522 80.9635L88.2721 62.1147L94.1943 64.9215C88.3687 77.8743 83.2513 89.2912 83.2513 89.2912L72.5698 98.6115L66.9114 106.049L62.6155 105.943L59.3155 103.395L61.2539 93.9993L62.0248 78.6435C62.0248 78.6435 67.1572 67.6306 73.0692 54.8954L79.9307 58.1864Z" fill="#718096"/>
<path d="M50.1142 112.603C49.3062 115.579 46.2066 117.344 43.1911 116.547C40.1756 115.75 38.386 112.692 39.194 109.716C40.002 106.741 43.1016 104.976 46.1171 105.773C49.1326 106.57 50.9222 109.628 50.1142 112.603Z" fill="#718096"/>
<path d="M59.1403 130.13C58.1886 133.634 54.5377 135.714 50.9859 134.775C47.434 133.836 45.3262 130.233 46.2779 126.729C47.2297 123.225 50.8805 121.145 54.4323 122.084C57.9842 123.023 60.092 126.625 59.1403 130.13Z" fill="#718096"/>
<path d="M67.8737 117.298C67.4786 118.753 65.9632 119.616 64.4889 119.226C63.0146 118.837 62.1397 117.341 62.5347 115.887C62.9298 114.432 64.4452 113.569 65.9195 113.959C67.3938 114.349 68.2687 115.844 67.8737 117.298Z" fill="#718096"/>
</svg>
