<svg width="10.000000" height="10.000000" viewBox="0 0 10 10" fill="none" xmlns="http://www.w3.org/2000/svg" xmlns:xlink="http://www.w3.org/1999/xlink">
	<desc>
			Created with Pixso.
	</desc>
	<defs/>
	<rect id="plus-lg" width="10.000000" height="10.000000" fill="#fff" fill-opacity="0"/>
	<path id="plus (Stroke)" d="M5 0C5.34521 0 5.625 0.279785 5.625 0.625L5.625 4.375L9.375 4.375C9.72021 4.375 10 4.65479 10 5C10 5.34521 9.72021 5.625 9.375 5.625L5.625 5.625L5.625 9.375C5.625 9.72021 5.34521 10 5 10C4.65479 10 4.375 9.72021 4.375 9.375L4.375 5.625L0.625 5.625C0.279785 5.625 0 5.34521 0 5C0 4.65479 0.279785 4.375 0.625 4.375L4.375 4.375L4.375 0.625C4.375 0.279785 4.65479 0 5 0Z" fill="#0066FF" fill-opacity="1.000000" fill-rule="evenodd"/>
</svg>
