<svg width="32" height="26" viewBox="0 0 32 32" fill="none" xmlns="http://www.w3.org/2000/svg">
<mask id="mask0_466_45352" style="mask-type:alpha" maskUnits="userSpaceOnUse" x="0" y="0" width="32" height="32">
<rect width="32" height="32" fill="#D9D9D9"/>
</mask>
<g mask="url(#mask0_466_45352)">
<path d="M21.0312 17.2974L19.5338 15.8C19.7338 14.6957 19.4188 13.703 18.5889 12.8218C17.759 11.9406 16.7406 11.6 15.5338 11.8L14.0364 10.3026C14.3372 10.1675 14.6457 10.0663 14.962 9.99875C15.2782 9.93122 15.6244 9.89745 16.0004 9.89745C17.5132 9.89745 18.7974 10.4252 19.853 11.4808C20.9085 12.5363 21.4363 13.8205 21.4363 15.3333C21.4363 15.7094 21.4025 16.0598 21.335 16.3846C21.2675 16.7094 21.1662 17.0136 21.0312 17.2974ZM25.2722 21.4461L23.8004 20.0667C24.6449 19.4222 25.3949 18.7167 26.0504 17.95C26.706 17.1833 27.2671 16.3111 27.7338 15.3333C26.6227 13.0889 25.0282 11.3055 22.9504 9.98332C20.8727 8.6611 18.556 7.99999 16.0004 7.99999C15.356 7.99999 14.7226 8.04443 14.1004 8.13332C13.4782 8.22221 12.8671 8.35554 12.2671 8.53332L10.7133 6.97952C11.556 6.64447 12.4167 6.39746 13.2953 6.23849C14.1739 6.07951 15.0756 6.00002 16.0004 6.00002C19.1252 6.00002 21.9431 6.86155 24.4542 8.58462C26.9653 10.3077 28.797 12.5573 29.9491 15.3333C29.4551 16.5248 28.817 17.6367 28.035 18.6692C27.2529 19.7017 26.332 20.6273 25.2722 21.4461ZM26.3491 29.1589L20.9543 23.8051C20.2705 24.0581 19.5128 24.2649 18.6812 24.4256C17.8496 24.5863 16.956 24.6666 16.0004 24.6666C12.8671 24.6666 10.0492 23.8051 7.54663 22.082C5.04407 20.3589 3.21245 18.1094 2.05176 15.3333C2.54407 14.1555 3.17997 13.0568 3.95946 12.0372C4.73895 11.0175 5.59707 10.1333 6.53382 9.38462L2.84149 5.65129L4.24662 4.24619L27.7542 27.7538L26.3491 29.1589ZM7.93892 10.7897C7.23466 11.3504 6.54961 12.0243 5.88379 12.8115C5.21797 13.5987 4.67907 14.4393 4.26709 15.3333C5.3782 17.5778 6.97265 19.3611 9.05042 20.6833C11.1282 22.0055 13.4449 22.6667 16.0004 22.6667C16.6073 22.6667 17.2116 22.6154 17.8133 22.5128C18.415 22.4102 18.9253 22.3043 19.3441 22.1949L17.6569 20.4666C17.4295 20.5589 17.1662 20.6324 16.8671 20.6871C16.568 20.7418 16.2791 20.7692 16.0004 20.7692C14.4876 20.7692 13.2034 20.2414 12.1479 19.1859C11.0923 18.1303 10.5646 16.8461 10.5646 15.3333C10.5646 15.0632 10.5919 14.7808 10.6466 14.4859C10.7013 14.191 10.7748 13.9213 10.8671 13.6769L7.93892 10.7897Z" fill="#a0aec0"/>
</g>
</svg>
