<svg width="150" height="150" viewBox="0 0 150 150" fill="none" xmlns="http://www.w3.org/2000/svg">
<path fill-rule="evenodd" clip-rule="evenodd" d="M92.0661 85.2784L115.781 57.2202L121 61.923L96.0759 88.9833L92.0661 85.2784ZM93.3049 66.6554L110.378 42.177L116.045 46.6193L97.2337 71.1631L93.3049 66.6554ZM83.2624 62.3807L96.862 34.5582L103.296 37.7518L89.023 63.9616L83.2624 62.3807ZM79.0689 85.3814C71.8026 76.3942 78.6726 70.0292 89.5202 68.6508C93.0145 79.0903 90.306 87.7578 79.0689 85.3814ZM67.5664 71.0519L80.9682 36.747L87.464 39.4126L72.6331 73.0461L67.5664 71.0519ZM70.0241 94.4083C59.7334 91.706 58.7966 82.9149 63.6161 75.2006C72.9389 81.0787 77.8932 89.6002 70.0241 94.4083ZM61.8936 107.422C51.6029 104.72 50.6627 95.9367 55.4788 88.2301C64.8084 94.0926 69.7502 102.617 61.8936 107.422ZM65.3371 113.868L61.0852 123L52.7398 118.858L59.7918 110.045L65.3371 113.868ZM74.5614 97.2858C75.4524 88.0949 85.25 88.8475 94.5796 94.71C89.7736 102.393 81.4878 105.384 74.5682 97.2702L74.5614 97.2858ZM86.4558 107.708C81.6397 115.415 73.3539 118.406 66.4376 110.284C67.3287 101.093 77.1263 101.846 86.4558 107.708Z" fill="#718096"/>
<path fill-rule="evenodd" clip-rule="evenodd" d="M54.9162 56.9761L56.8156 27L63.9266 27.7397L60.5824 58.7035L54.9162 56.9761ZM44.1699 58.7253L41.3901 27.7675L48.5094 27.034L49.8849 56.9809L44.1699 58.7253ZM52.4638 80.5378C41.6488 76.79 44.2101 67.6921 52.7259 60.7028C61.0814 67.7087 63.2472 76.5335 52.4638 80.5378ZM35.2907 74.5175L29 38.152L35.8997 36.9361L40.6287 73.4967L35.2907 74.5175ZM49.4254 93.066C39.2789 96.2857 33.9487 89.3106 34.07 80.1645C45.0309 80.1651 53.6393 84.7566 49.4254 93.066ZM49.2206 108.495C39.0742 111.715 33.7451 104.748 33.8676 95.6106C44.8262 95.5943 53.4255 100.195 49.2206 108.495Z" fill="#718096"/>
</svg>
